<svg xmlns="http://www.w3.org/2000/svg" xmlns:xlink="http://www.w3.org/1999/xlink" width="91px" height="48px" viewBox="0 0 90 48" version="1.1">
<g id="surface1">
<path style=" stroke:none;fill-rule:nonzero;fill:#57595d;fill-opacity:1;" d="M 45.238281 0.53125 C 45.640625 1.710938 45.757812 3.4375 45.527344 4.652344 C 45.472656 4.964844 45.421875 5.21875 45.421875 5.21875 C 45.421875 5.21875 45.113281 5.226562 44.734375 5.226562 L 44.042969 5.234375 L 43.398438 4.304688 C 42.828125 3.480469 41.027344 1.070312 40.84375 0.886719 C 40.800781 0.84375 40.867188 1.015625 40.984375 1.25 C 41.386719 2.074219 41.714844 3.515625 41.808594 4.878906 L 41.855469 5.523438 L 41.546875 5.609375 C 39.5 6.148438 37.84375 6.972656 36.195312 8.25 C 34.609375 9.492188 33.066406 11.277344 31.992188 13.121094 C 31.199219 14.484375 28.433594 16.367188 26.078125 17.140625 C 24.875 17.539062 23.960938 17.695312 22.589844 17.730469 C 21.261719 17.773438 20.445312 17.703125 19.265625 17.433594 C 16.902344 16.898438 14.167969 15.515625 11.933594 13.71875 C 11.664062 13.503906 11.441406 13.347656 11.433594 13.363281 C 11.320312 13.5 10.933594 14.863281 10.792969 15.613281 C 10.230469 18.683594 10.792969 21.097656 12.445312 22.722656 L 12.917969 23.183594 L 12.957031 24.175781 C 13.058594 26.519531 13.859375 28.089844 15.539062 29.234375 L 15.863281 29.453125 L 15.941406 30.09375 C 16.261719 32.683594 17.851562 34.316406 20.691406 34.96875 C 22.0625 35.289062 26.324219 35.46875 28.449219 35.296875 C 30.085938 35.164062 31.773438 34.835938 32.730469 34.460938 C 32.78125 34.445312 32.960938 34.628906 33.136719 34.871094 C 34.339844 36.503906 36.027344 38.039062 37.765625 39.082031 L 38.300781 39.410156 L 38.339844 40.523438 C 38.398438 42.164062 38.679688 43.1875 39.285156 43.9375 C 39.523438 44.230469 39.523438 44.242188 39.453125 44.597656 C 39.269531 45.445312 38.726562 46.167969 38.199219 46.265625 C 38.058594 46.296875 37.511719 46.28125 36.984375 46.230469 C 36.464844 46.183594 35.65625 46.117188 35.191406 46.074219 C 34.726562 46.039062 34.136719 45.976562 33.882812 45.933594 C 33.433594 45.855469 33.40625 45.855469 33.046875 46.054688 C 32.535156 46.339844 32.421875 46.609375 32.625 47.035156 L 32.765625 47.339844 L 33.664062 47.382812 C 34.15625 47.410156 35.429688 47.433594 36.492188 47.433594 L 38.425781 47.433594 L 39.972656 47.722656 L 41.511719 48.015625 L 41.738281 47.773438 C 41.855469 47.636719 42.011719 47.375 42.082031 47.199219 L 42.207031 46.855469 L 42.039062 46.679688 C 41.949219 46.578125 41.6875 46.386719 41.464844 46.246094 C 41.246094 46.109375 41.027344 45.941406 40.992188 45.871094 C 40.902344 45.699219 40.902344 45.316406 41 44.753906 C 41.054688 44.414062 41.113281 44.285156 41.230469 44.222656 C 41.851562 43.902344 42.625 42.929688 43.179688 41.765625 L 43.542969 41.007812 L 44.710938 41.007812 C 45.351562 41.007812 46.070312 40.984375 46.308594 40.957031 L 46.730469 40.90625 L 46.925781 41.3125 C 47.398438 42.285156 48.3125 43.363281 48.910156 43.648438 C 49.175781 43.773438 49.183594 43.796875 49.289062 44.449219 C 49.378906 45.074219 49.378906 45.535156 49.273438 45.671875 C 49.226562 45.726562 48.957031 45.925781 48.683594 46.109375 C 48.402344 46.289062 48.15625 46.496094 48.128906 46.558594 C 48.074219 46.714844 48.496094 47.558594 48.691406 47.679688 C 48.804688 47.75 49.085938 47.714844 50.230469 47.496094 L 51.625 47.226562 L 54.519531 47.175781 C 57.726562 47.125 57.585938 47.148438 57.742188 46.636719 C 57.8125 46.394531 57.804688 46.339844 57.675781 46.167969 C 57.5 45.917969 57.023438 45.648438 56.761719 45.648438 C 56.65625 45.648438 56.328125 45.683594 56.039062 45.722656 C 55.75 45.761719 54.789062 45.863281 53.894531 45.941406 C 52.066406 46.105469 51.898438 46.082031 51.503906 45.683594 C 51.160156 45.34375 50.996094 44.988281 50.800781 44.152344 L 50.632812 43.421875 L 50.808594 43.1875 C 51.3125 42.527344 51.609375 41.445312 51.660156 40.070312 L 51.699219 39.132812 L 52.171875 38.847656 C 53.277344 38.1875 54.964844 36.683594 55.847656 35.574219 C 56.082031 35.28125 56.277344 35.035156 56.285156 35.019531 C 56.292969 35.011719 56.53125 35.113281 56.820312 35.246094 C 57.832031 35.714844 59.042969 36.019531 60.8125 36.261719 C 61.480469 36.355469 62.269531 36.382812 64.054688 36.382812 C 67.9375 36.390625 69.742188 36.140625 71.261719 35.390625 C 72.992188 34.539062 74.066406 32.945312 74.230469 31.015625 L 74.269531 30.527344 L 74.664062 30.253906 C 75.320312 29.808594 75.777344 29.347656 76.183594 28.722656 C 76.871094 27.683594 77.203125 26.472656 77.203125 25.023438 L 77.203125 24.21875 L 77.492188 23.984375 C 77.96875 23.601562 78.523438 22.871094 78.863281 22.1875 C 79.628906 20.628906 79.777344 18.703125 79.3125 16.402344 C 79.164062 15.65625 78.847656 14.5625 78.75 14.464844 C 78.722656 14.429688 78.433594 14.605469 78.109375 14.855469 C 74.171875 17.894531 70.171875 19.214844 66.445312 18.71875 C 64.90625 18.503906 63.808594 18.164062 62.332031 17.433594 C 61.058594 16.808594 59.898438 16.003906 58.9375 15.089844 C 58.304688 14.484375 58.183594 14.328125 57.832031 13.648438 C 56.445312 10.992188 54.421875 8.832031 51.757812 7.164062 C 51.625 7.078125 51.558594 6.945312 51.488281 6.597656 C 51.320312 5.730469 50.722656 4.75 49.730469 3.683594 C 49.246094 3.167969 49.105469 3.089844 49.175781 3.367188 C 49.332031 3.984375 49.351562 5.78125 49.203125 5.929688 C 49.191406 5.941406 48.957031 5.886719 48.683594 5.808594 L 48.183594 5.660156 L 48.074219 5.140625 C 47.917969 4.417969 47.585938 3.636719 47.09375 2.785156 C 46.667969 2.058594 45.800781 0.859375 45.324219 0.320312 L 45.078125 0.0351562 Z M 45.238281 0.53125 "/>
<path style=" stroke:none;fill-rule:nonzero;fill:#57595d;fill-opacity:1;" d="M 3.101562 6.503906 C 1.597656 6.832031 0.441406 7.953125 0.0976562 9.414062 C -0.191406 10.652344 0.246094 12.242188 1.144531 13.25 L 1.457031 13.589844 L 1.636719 13.3125 L 1.828125 13.035156 L 1.660156 12.851562 C 1.082031 12.25 0.695312 11.210938 0.6875 10.296875 C 0.6875 9.03125 1.34375 7.972656 2.496094 7.40625 C 3.050781 7.128906 3.964844 6.988281 4.550781 7.085938 L 4.914062 7.148438 L 5.097656 6.875 C 5.203125 6.71875 5.273438 6.582031 5.257812 6.566406 C 5.203125 6.511719 4.296875 6.390625 3.9375 6.398438 C 3.726562 6.398438 3.347656 6.449219 3.101562 6.503906 Z M 3.101562 6.503906 "/>
<path style=" stroke:none;fill-rule:nonzero;fill:#57595d;fill-opacity:1;" d="M 85.15625 8.101562 C 84.945312 8.136719 84.753906 8.179688 84.742188 8.195312 C 84.726562 8.214844 84.796875 8.34375 84.894531 8.492188 L 85.070312 8.761719 L 85.832031 8.742188 C 87.003906 8.71875 87.765625 9.011719 88.496094 9.777344 C 89.59375 10.933594 89.585938 12.945312 88.480469 14.320312 C 88.199219 14.667969 88.191406 14.742188 88.410156 15.011719 L 88.574219 15.222656 L 88.8125 14.953125 C 89.277344 14.421875 89.550781 13.929688 89.78125 13.207031 C 90.484375 11.054688 89.347656 8.863281 87.1875 8.207031 C 86.710938 8.058594 85.660156 8.007812 85.15625 8.101562 Z M 85.15625 8.101562 "/>
<path style=" stroke:none;fill-rule:nonzero;fill:#57595d;fill-opacity:1;" d="M 5.449219 8.484375 C 4.78125 8.632812 3.886719 9.089844 3.425781 9.515625 C 2.664062 10.210938 2.3125 11.007812 2.304688 12 C 2.304688 12.675781 2.410156 13.109375 2.734375 13.753906 C 2.945312 14.1875 3.675781 15.125 3.796875 15.125 C 3.832031 15.125 3.945312 15.019531 4.042969 14.882812 L 4.21875 14.648438 L 3.972656 14.371094 C 3.296875 13.632812 2.996094 12.84375 3.039062 11.929688 C 3.066406 11.132812 3.332031 10.550781 3.921875 9.996094 C 4.691406 9.289062 5.535156 8.996094 6.800781 9.023438 L 7.59375 9.039062 L 7.769531 8.804688 L 7.945312 8.5625 L 7.789062 8.5 C 7.496094 8.378906 5.976562 8.371094 5.449219 8.484375 Z M 5.449219 8.484375 "/>
<path style=" stroke:none;fill-rule:nonzero;fill:#57595d;fill-opacity:1;" d="M 82.230469 9.421875 C 82.152344 9.4375 82.019531 9.464844 81.929688 9.488281 L 81.773438 9.515625 L 81.957031 9.792969 L 82.140625 10.074219 L 82.742188 10.03125 C 84.621094 9.917969 86.117188 11.070312 86.363281 12.816406 C 86.5 13.746094 86.195312 14.820312 85.5625 15.621094 C 85.414062 15.8125 85.289062 15.992188 85.289062 16.011719 C 85.289062 16.03125 85.367188 16.167969 85.457031 16.304688 L 85.625 16.550781 L 85.949219 16.175781 C 86.328125 15.742188 86.785156 14.847656 86.941406 14.238281 C 87.074219 13.695312 87.074219 12.78125 86.941406 12.253906 C 86.589844 10.890625 85.527344 9.847656 84.128906 9.480469 C 83.742188 9.378906 82.589844 9.34375 82.230469 9.421875 Z M 82.230469 9.421875 "/>
<path style=" stroke:none;fill-rule:nonzero;fill:#57595d;fill-opacity:1;" d="M 9.210938 10.621094 C 8.535156 10.765625 7.664062 11.226562 7.152344 11.707031 C 6.3125 12.503906 5.878906 13.519531 5.878906 14.699219 C 5.878906 15.507812 6.011719 16.082031 6.390625 16.863281 C 6.652344 17.394531 7.261719 18.25 7.417969 18.296875 C 7.488281 18.320312 7.804688 17.878906 7.804688 17.757812 C 7.804688 17.730469 7.683594 17.546875 7.53125 17.355469 C 5.363281 14.597656 7.199219 11.027344 10.671875 11.246094 L 11.320312 11.28125 L 11.503906 11 C 11.601562 10.835938 11.671875 10.695312 11.652344 10.679688 C 11.636719 10.664062 11.460938 10.621094 11.25 10.578125 C 10.738281 10.480469 9.757812 10.5 9.210938 10.621094 Z M 9.210938 10.621094 "/>
<path style=" stroke:none;fill-rule:nonzero;fill:#57595d;fill-opacity:1;" d="M 78.203125 11.503906 C 78.074219 11.53125 77.957031 11.566406 77.941406 11.589844 C 77.925781 11.601562 77.996094 11.746094 78.097656 11.902344 L 78.277344 12.183594 L 79.023438 12.15625 C 80.703125 12.085938 82.011719 12.808594 82.660156 14.171875 C 82.898438 14.675781 82.925781 14.796875 82.953125 15.445312 C 83.003906 16.539062 82.722656 17.425781 82.074219 18.226562 C 81.746094 18.640625 81.738281 18.71875 82.003906 19.058594 L 82.175781 19.265625 L 82.539062 18.808594 C 84.742188 16.082031 83.757812 12.46875 80.5625 11.574219 C 80.03125 11.425781 78.695312 11.382812 78.203125 11.503906 Z M 78.203125 11.503906 "/>
</g>
</svg>